<?xml version="1.0" standalone="no"?>
<!DOCTYPE svg PUBLIC "-//W3C//DTD SVG 20010904//EN"
 "http://www.w3.org/TR/2001/REC-SVG-20010904/DTD/svg10.dtd">
<svg version="1.0" xmlns="http://www.w3.org/2000/svg"
 width="750.000000pt" height="333.000000pt" viewBox="0 0 750.000000 333.000000"
 preserveAspectRatio="xMidYMid meet">

<g transform="translate(0.000000,333.000000) scale(0.100000,-0.100000)"
fill="#000000" stroke="none">
<path d="M1025 2403 c-177 -5 -372 -23 -425 -39 -164 -48 -213 -154 -231 -499
-10 -203 -5 -463 13 -585 18 -133 44 -197 99 -250 96 -92 201 -104 939 -104
735 0 839 12 937 102 68 65 88 124 108 326 27 289 11 674 -36 827 -21 69 -72
135 -127 163 -102 51 -667 78 -1277 59z m745 -408 l0 -95 -115 0 -115 0 0
-350 0 -350 -110 0 -110 0 0 350 0 350 -115 0 c-63 0 -115 3 -116 8 -1 10 -1
144 0 165 1 16 24 17 341 17 l340 0 0 -95z"/>
</g>
</svg>
