<?xml version="1.0" standalone="no"?>
<!DOCTYPE svg PUBLIC "-//W3C//DTD SVG 20010904//EN"
 "http://www.w3.org/TR/2001/REC-SVG-20010904/DTD/svg10.dtd">
<svg version="1.0" xmlns="http://www.w3.org/2000/svg"
 width="750.000000pt" height="333.000000pt" viewBox="0 0 750.000000 333.000000"
 preserveAspectRatio="xMidYMid meet">

<g transform="translate(0.000000,333.000000) scale(0.100000,-0.100000)"
fill="#000000" stroke="none">
<path d="M1025 2403 c-177 -5 -372 -23 -425 -39 -164 -48 -213 -154 -231 -499
-10 -203 -5 -463 13 -585 18 -133 44 -197 99 -250 96 -92 201 -104 939 -104
735 0 839 12 937 102 68 65 88 124 108 326 27 289 11 674 -36 827 -21 69 -72
135 -127 163 -102 51 -667 78 -1277 59z m745 -408 l0 -95 -115 0 -115 0 0
-350 0 -350 -110 0 -110 0 0 350 0 350 -115 0 c-63 0 -115 3 -116 8 -1 10 -1
144 0 165 1 16 24 17 341 17 l340 0 0 -95z"/>
<path d="M2685 2303 c5 -10 24 -65 43 -123 19 -58 45 -132 57 -165 25 -65 63
-184 131 -400 l44 -140 0 -222 0 -223 114 0 114 0 4 248 c3 195 8 255 20 287
17 41 46 135 93 290 15 50 35 115 45 145 10 30 28 91 40 135 19 69 36 120 57
173 4 10 -20 12 -113 10 l-119 -3 -8 -45 c-5 -25 -19 -85 -32 -135 -29 -114
-40 -157 -66 -275 -23 -105 -35 -128 -44 -84 -3 16 -11 47 -16 69 -6 22 -17
67 -25 100 -7 33 -22 87 -34 119 -11 33 -20 66 -20 75 0 9 -10 53 -22 98 l-23
83 -124 0 c-113 0 -123 -1 -116 -17z"/>
<path d="M4527 2313 c-4 -3 -7 -48 -7 -99 l0 -94 168 -2 167 -3 3 -542 2 -543
115 0 115 0 0 545 0 545 140 0 141 0 -3 98 -3 97 -416 3 c-228 1 -418 -1 -422
-5z"/>
<path d="M6085 1984 c-100 -12 -135 -26 -183 -72 -79 -76 -87 -115 -87 -412 0
-204 3 -254 17 -301 24 -78 63 -123 129 -153 48 -22 71 -26 155 -26 118 0 152
8 209 52 83 64 110 171 109 428 0 275 -27 372 -120 438 -42 29 -163 53 -229
46z m74 -154 c40 -21 46 -62 46 -337 0 -250 -1 -263 -21 -290 -12 -15 -33 -32
-48 -37 -36 -13 -77 18 -93 70 -15 51 -17 459 -2 519 18 73 66 103 118 75z"/>
<path d="M3570 1967 c-143 -50 -185 -155 -185 -467 0 -282 25 -372 124 -438
l56 -37 135 0 c130 0 136 1 177 28 101 65 133 172 133 447 0 280 -33 386 -138
448 -40 23 -57 26 -156 29 -70 2 -124 -2 -146 -10z m182 -157 c27 -37 41 -186
35 -380 -6 -184 -18 -236 -59 -259 -24 -14 -30 -14 -62 1 -28 14 -37 25 -43
55 -10 49 -10 509 0 546 19 68 90 88 129 37z"/>
<path d="M5620 1969 c-33 -13 -68 -47 -86 -82 -20 -39 -34 -25 -34 34 l0 50
-97 -3 -98 -3 -3 -467 -2 -468 110 0 110 0 0 329 c0 359 2 373 57 396 46 19
96 25 136 16 l37 -9 0 109 0 109 -52 -1 c-29 0 -64 -5 -78 -10z"/>
<path d="M6733 1970 c-75 -17 -127 -72 -164 -170 -23 -62 -24 -75 -23 -305 0
-237 1 -241 28 -310 32 -84 55 -110 121 -141 43 -20 66 -24 156 -24 94 0 111
3 154 25 26 14 56 36 66 48 29 34 59 142 59 213 l0 64 -99 0 -98 0 -6 -69 c-6
-78 -17 -104 -51 -126 -32 -21 -70 -6 -93 37 -16 29 -18 61 -18 288 0 240 1
257 21 295 19 36 25 40 59 40 52 0 73 -35 81 -138 l7 -77 98 0 99 0 0 66 c0
156 -51 249 -154 279 -52 16 -188 19 -243 5z"/>
<path d="M4117 1948 c-3 -13 -5 -189 -3 -393 2 -350 3 -373 23 -423 12 -29 34
-65 48 -80 24 -24 36 -27 109 -30 76 -3 84 -1 129 27 26 17 56 45 66 62 22 36
26 31 36 -33 l7 -48 89 0 89 0 0 470 0 470 -110 0 -110 0 0 -369 0 -369 -29
-31 c-38 -41 -83 -43 -108 -4 -16 24 -18 63 -21 400 l-3 373 -104 0 c-98 0
-103 -1 -108 -22z"/>
</g>
</svg>
